<svg xmlns="http://www.w3.org/2000/svg" width="375" viewBox="0 0 375 375" height="375" version="1.0"><defs><clipPath id="a"><path d="M 125 87.742188 L 250 87.742188 L 250 227.992188 L 125 227.992188 Z M 125 87.742188"/></clipPath></defs><g clip-path="url(#a)"><path fill="#4C2B15" d="M 246.574219 176.230469 C 246.609375 176.097656 246.636719 175.964844 246.652344 175.832031 C 248.992188 172.117188 249.519531 167.964844 248.105469 164.304688 C 250.25 160.25 249.46875 155.230469 246.191406 151.828125 C 246.835938 150.398438 247.1875 148.902344 247.253906 147.339844 C 247.320312 145.777344 247.09375 144.253906 246.574219 142.777344 C 244.699219 137.351562 240.425781 131.230469 235.136719 126.398438 C 229.496094 121.242188 222.734375 118.101562 216.660156 115.75 C 218.289062 108.519531 219.320312 102.523438 219.886719 96.9375 C 220.054688 96.453125 220.105469 95.957031 220.039062 95.449219 C 220.074219 94.964844 220 94.496094 219.8125 94.050781 C 219.476562 92.601562 218.074219 91.78125 216.808594 91.71875 C 214.015625 91.582031 211.910156 93.339844 210.234375 94.753906 C 209.929688 95.011719 209.628906 95.265625 209.328125 95.503906 L 204.117188 99.636719 L 197.886719 89.488281 C 197.566406 88.957031 197.125 88.554688 196.5625 88.28125 C 196 88.007812 195.410156 87.910156 194.792969 87.984375 C 194.160156 88.058594 193.597656 88.296875 193.105469 88.699219 C 192.613281 89.101562 192.269531 89.605469 192.074219 90.207031 C 190.894531 93.800781 189.78125 97.09375 188.296875 100.199219 C 185.839844 96.863281 183.496094 93.433594 181.316406 89.960938 C 180.984375 89.445312 180.539062 89.046875 179.984375 88.773438 C 179.433594 88.503906 178.847656 88.390625 178.234375 88.4375 C 177.683594 88.46875 177.183594 88.636719 176.730469 88.949219 C 176.277344 89.261719 175.9375 89.667969 175.71875 90.171875 C 174.152344 93.679688 172.425781 97.230469 170.5625 100.753906 C 167.167969 97.863281 163.613281 95.1875 159.898438 92.71875 C 159.621094 92.523438 159.320312 92.378906 158.992188 92.285156 C 158.664062 92.195312 158.332031 92.160156 157.992188 92.179688 C 157.65625 92.203125 157.328125 92.28125 157.015625 92.414062 C 156.703125 92.546875 156.421875 92.726562 156.171875 92.957031 C 155.664062 93.414062 155.324219 93.972656 155.15625 94.636719 C 154.988281 95.300781 155.019531 95.957031 155.25 96.601562 C 155.65625 98.566406 156.042969 100.535156 156.429688 102.503906 C 157.289062 106.980469 158.203125 111.597656 159.34375 116.125 C 151.5 119.183594 132.1875 128.398438 127.472656 146.222656 C 126.390625 150.3125 126.613281 153.964844 128.140625 157.089844 C 125.109375 160.925781 124.988281 166.34375 127.992188 170.183594 C 128.574219 170.925781 129.242188 171.582031 129.996094 172.148438 C 129.359375 174.136719 129.289062 176.148438 129.78125 178.179688 C 126.976562 181.941406 126.175781 187.710938 128.039062 191.507812 C 128.898438 193.277344 130.265625 194.050781 131.476562 194.609375 C 129.367188 199.5 130.375 206.003906 132.050781 210.4375 C 132.910156 212.785156 134.191406 214.878906 135.886719 216.71875 C 141.109375 222.308594 149.152344 224.3125 157.066406 225.644531 C 163.171875 226.671875 169.691406 227.273438 178.207031 227.597656 C 181.882812 227.738281 185.667969 227.84375 189.523438 227.84375 C 194.972656 227.871094 200.410156 227.585938 205.828125 226.988281 C 219.628906 225.394531 229.636719 221.980469 237.3125 216.246094 C 239.871094 214.375 242.101562 212.167969 243.996094 209.628906 C 247.210938 205.261719 248.539062 199.160156 247.671875 192.816406 C 248.410156 191.6875 248.847656 190.453125 248.992188 189.113281 C 249.28125 186.730469 248.472656 184.730469 247.746094 183.25 C 246.488281 180.664062 245.925781 178.78125 246.574219 176.230469 Z M 246.574219 176.230469"/></g><path fill="#FFBB5D" d="M 242.867188 144.839844 C 241.417969 140.699219 239.230469 136.441406 236.53125 132.976562 C 233.886719 129.589844 230.492188 126.890625 226.867188 124.613281 C 225.039062 123.46875 223.144531 122.417969 221.238281 121.417969 C 219.398438 120.453125 217.414062 119.132812 215.394531 118.578125 C 211.359375 117.492188 211.671875 121.417969 210.90625 124.070312 C 210.417969 125.785156 209.226562 127.101562 207.660156 128.09375 L 207.519531 128.175781 C 206.328125 128.828125 205.085938 129.371094 203.796875 129.800781 C 200.507812 130.808594 196.824219 131.136719 194.339844 131.285156 C 188.105469 131.628906 181.929688 131.199219 175.804688 129.984375 C 172.753906 129.386719 169.183594 128.824219 166.820312 126.640625 C 164.566406 124.554688 163.898438 121.378906 163.289062 118.503906 C 163.277344 118.445312 163.246094 118.40625 163.191406 118.382812 C 163.136719 118.363281 163.085938 118.367188 163.035156 118.398438 L 162.917969 118.171875 C 163.132812 118.070312 162.945312 117.753906 162.730469 117.855469 C 153.949219 121.878906 146.03125 127.1875 138.984375 133.777344 C 133.339844 139.066406 127.347656 146.960938 130.660156 155.109375 C 133.777344 162.792969 143.75 163.875 150.917969 164.511719 C 161.902344 165.488281 173.074219 165.617188 184.089844 165.859375 C 194.609375 166.082031 205.160156 165.824219 215.550781 164.023438 C 224.167969 162.527344 233.246094 160.09375 239.878906 154.085938 C 242.722656 151.511719 244.1875 148.601562 242.867188 144.839844 Z M 242.867188 144.839844"/><path fill="#FFBB5D" d="M 244.226562 193.386719 C 244.222656 193.269531 244.164062 193.207031 244.042969 193.203125 C 241.179688 192.855469 239.617188 195.148438 238.601562 197.484375 C 237.710938 199.53125 236.941406 201.636719 236.117188 203.707031 C 235.75 204.625 235.382812 206.75 234.132812 206.769531 C 233.8125 206.738281 233.515625 206.632812 233.242188 206.460938 L 232.90625 206.265625 C 232.15625 205.796875 231.347656 205.136719 230.925781 204.886719 C 227.253906 202.742188 223.59375 200.125 219.710938 198.390625 C 215.988281 196.71875 211.5 198.785156 207.5625 198.605469 C 203.980469 198.4375 200.160156 196.492188 196.617188 197.820312 C 194.957031 198.445312 193.640625 199.6875 192.117188 200.550781 C 189.714844 201.910156 186.808594 202.5 184.09375 201.894531 C 180.457031 201.085938 178.265625 197.648438 174.371094 197.589844 C 170.253906 197.523438 167.917969 201.824219 163.769531 200.832031 C 159.457031 199.796875 155.476562 197.824219 150.898438 198.296875 C 149.289062 198.449219 147.8125 198.976562 146.46875 199.878906 C 145.402344 200.582031 144.675781 201.523438 143.320312 201.164062 C 141.960938 200.804688 142.621094 201 142.132812 200.023438 C 141.742188 199.242188 141.558594 198.023438 141.328125 197.195312 C 141.304688 197.101562 141.246094 197.054688 141.148438 197.054688 C 141.050781 197.054688 140.992188 197.101562 140.96875 197.195312 L 140.28125 197.0625 C 140.300781 196.980469 140.273438 196.914062 140.203125 196.871094 L 135.171875 193.597656 C 135.121094 193.566406 135.066406 193.5625 135.007812 193.585938 C 134.953125 193.609375 134.917969 193.648438 134.898438 193.707031 C 131.980469 201.203125 134.566406 211.179688 140.496094 216.652344 C 143.621094 219.539062 148.566406 220.34375 152.5625 221.3125 C 157.617188 222.523438 162.730469 223.414062 167.902344 223.980469 C 178.71875 225.1875 189.644531 225.105469 200.488281 224.328125 C 205.8125 223.945312 211.136719 223.429688 216.429688 222.738281 C 221.214844 222.109375 225.003906 220.539062 229.007812 217.863281 C 233.5625 214.828125 238.640625 211.277344 242.042969 206.957031 C 245.140625 203.019531 244.765625 198.082031 244.226562 193.386719 Z M 244.226562 193.386719"/><path fill="#70C156" d="M 242.691406 152.695312 C 242.628906 152.660156 242.566406 152.660156 242.503906 152.695312 C 238.300781 155.652344 234.066406 158.554688 229.242188 160.425781 C 225.144531 162.019531 220.820312 162.96875 216.476562 163.609375 C 206.582031 165.0625 196.464844 165.460938 186.484375 165.964844 C 181.671875 166.210938 176.839844 166.46875 172.015625 166.539062 C 169.222656 166.613281 166.441406 166.460938 163.671875 166.078125 C 161.40625 165.730469 159.207031 165.082031 156.949219 164.71875 C 152.792969 164.046875 148.585938 164.414062 144.453125 163.449219 C 140.144531 162.425781 136.203125 160.609375 132.628906 158 L 132.703125 157.929688 C 132.886719 157.777344 132.628906 157.519531 132.445312 157.667969 C 132.402344 157.703125 132.359375 157.742188 132.320312 157.777344 L 132.15625 157.65625 C 131.964844 157.511719 131.78125 157.835938 131.96875 157.976562 L 132.042969 158.03125 C 129.316406 160.597656 128.503906 164.839844 130.726562 168.046875 C 133.46875 172 137.753906 171.683594 141.851562 170.457031 C 143.308594 170.023438 144.824219 169.519531 146.367188 169.578125 C 148.496094 169.664062 149.953125 170.929688 151.5 172.203125 C 153.5625 173.917969 155.679688 175.289062 158.304688 175.988281 C 160.671875 176.617188 163.042969 176.648438 165.425781 176.09375 C 165.652344 176.050781 165.871094 176 166.09375 175.949219 C 166.585938 175.832031 167.078125 175.683594 167.558594 175.527344 C 169.484375 174.933594 171.410156 174.148438 173.460938 173.433594 C 180.8125 170.867188 186.066406 175.011719 192.371094 178.054688 C 196.488281 180.050781 200.433594 180.234375 204.117188 177.304688 C 206.140625 175.695312 207.78125 173.632812 209.933594 172.167969 C 213.015625 170.070312 216.519531 170.199219 219.925781 171.355469 C 224 172.734375 229.257812 176.964844 233.523438 173.816406 C 234.703125 172.941406 235.457031 171.644531 236.386719 170.535156 C 237.464844 169.292969 238.734375 168.292969 240.199219 167.535156 C 242.203125 166.429688 244.394531 165.445312 245.585938 163.390625 C 247.695312 159.730469 245.972656 154.996094 242.691406 152.695312 Z M 242.691406 152.695312"/><path fill="#70C156" d="M 139.722656 195.203125 C 139.214844 192.253906 138.699219 189.273438 137.570312 186.488281 C 136.519531 183.917969 134.878906 181.707031 133.214844 179.507812 C 133.074219 179.320312 132.753906 179.507812 132.898438 179.691406 C 133.039062 179.878906 132.324219 179.789062 131.75 180.191406 C 130.1875 181.304688 129.933594 185.21875 129.824219 186.9375 C 129.695312 189.089844 129.941406 189.914062 131.730469 190.949219 C 132.671875 191.5 133.542969 192.09375 134.402344 192.664062 C 134.8125 192.964844 135.234375 193.234375 135.667969 193.503906 C 136.863281 194.304688 138.136719 194.945312 139.496094 195.425781 C 139.640625 195.480469 139.742188 195.332031 139.722656 195.203125 Z M 139.722656 195.203125"/><path fill="#70C156" d="M 212.390625 194.261719 C 204.042969 190.285156 193.480469 189.34375 184.351562 189.757812 C 173.417969 190.273438 162.941406 192.714844 152.914062 197.089844 C 152.695312 197.183594 152.886719 197.503906 153.101562 197.40625 C 153.316406 197.3125 153.582031 197.203125 153.820312 197.101562 C 156.933594 198.988281 160.996094 201.953125 164.859375 201.097656 C 166.734375 200.679688 168.214844 199.542969 169.832031 198.582031 C 173.085938 196.640625 175.769531 197.546875 178.910156 199.105469 C 182.304688 200.789062 185.59375 201.898438 189.414062 200.972656 C 191.171875 200.546875 192.652344 199.734375 194.136719 198.71875 C 196.988281 196.769531 199.765625 197.089844 202.96875 197.863281 C 206.257812 198.660156 211.277344 200.214844 214.488281 198.304688 C 217.261719 196.664062 214.042969 195.046875 212.390625 194.261719 Z M 212.390625 194.261719"/><path fill="#70C156" d="M 244.898438 186.261719 C 244.640625 185.425781 244.28125 184.636719 243.820312 183.894531 L 243.777344 183.828125 C 243.394531 183.277344 243.15625 181.992188 242.917969 181.96875 C 241.449219 181.808594 240.914062 188.730469 240.742188 189.828125 C 240.492188 191.320312 239.71875 194.679688 242.195312 193.472656 C 244.984375 192.105469 245.609375 189.050781 244.898438 186.261719 Z M 244.898438 186.261719"/><path fill="#B2442B" d="M 243.058594 164.449219 C 240.257812 164.273438 236.8125 168.183594 235.285156 170.082031 C 233.890625 171.816406 232.828125 174.121094 230.800781 175.222656 C 227.769531 176.875 225.945312 174.0625 223.066406 174.203125 C 219.585938 174.371094 217.476562 177.550781 215.214844 179.726562 C 210.753906 184.023438 205.269531 182.296875 200.058594 180.464844 C 195.296875 178.789062 190.921875 176.363281 186.28125 174.433594 C 182.148438 172.722656 177.582031 171.617188 173.28125 173.421875 C 169.488281 175.011719 166.734375 178.226562 163.390625 180.507812 C 152.789062 187.726562 141.171875 179.855469 134.765625 171.050781 C 134.625 170.859375 134.304688 171.050781 134.445312 171.238281 L 134.480469 171.285156 L 134.074219 171.746094 C 134.035156 171.695312 133.984375 171.671875 133.921875 171.679688 C 133.855469 171.6875 133.8125 171.722656 133.789062 171.78125 C 130.636719 178.140625 136.078125 184.167969 141.789062 186.371094 C 146.113281 188.035156 150.90625 188.65625 155.472656 189.292969 C 160.21875 189.953125 164.988281 190.300781 169.777344 190.339844 C 179.925781 190.40625 190.226562 189.703125 200.332031 188.792969 C 209.835938 187.9375 219.289062 185.398438 228.339844 182.464844 C 234.726562 180.394531 245.144531 177.824219 245.917969 169.636719 C 246.128906 167.738281 245.46875 164.605469 243.058594 164.449219 Z M 243.058594 164.449219"/><path fill="#FFE568" d="M 167.558594 191.71875 C 163.398438 189.746094 158.105469 189.015625 153.5625 188.449219 C 150.796875 188.105469 148.015625 187.976562 145.320312 187.207031 C 142.625 186.4375 140.164062 185.261719 137.734375 183.957031 C 137.648438 183.914062 137.574219 183.925781 137.507812 184 C 137.445312 184.070312 137.4375 184.144531 137.488281 184.226562 L 136.421875 184.972656 C 136.28125 184.804688 135.980469 184.972656 136.117188 185.167969 C 137.542969 187.132812 138.664062 189.257812 139.484375 191.542969 C 140.300781 193.882812 140.453125 196.167969 140.847656 198.582031 C 141.132812 200.359375 141.992188 201.804688 143.914062 200.949219 C 144.738281 200.578125 145.417969 199.730469 146.238281 199.273438 C 147.34375 198.6875 148.5 198.238281 149.714844 197.925781 C 151.449219 197.4375 153.230469 197.136719 154.988281 196.738281 C 159.386719 195.726562 163.578125 194.15625 167.558594 192.035156 C 167.621094 192 167.652344 191.945312 167.652344 191.875 C 167.652344 191.804688 167.621094 191.753906 167.558594 191.71875 Z M 167.558594 191.71875"/><path fill="#FFE568" d="M 241.066406 177.367188 C 241 177.300781 240.925781 177.292969 240.84375 177.335938 C 228.28125 183.570312 214.773438 185.992188 201.167969 188.902344 C 201.046875 188.925781 201.007812 188.996094 201.042969 189.113281 C 200.972656 189.109375 200.917969 189.136719 200.882812 189.199219 C 200.847656 189.257812 200.847656 189.320312 200.886719 189.378906 C 202.089844 191.265625 204.160156 191.859375 206.15625 192.636719 C 209.632812 193.992188 213.0625 195.460938 216.445312 197.046875 C 222.691406 199.984375 228.738281 203.289062 234.578125 206.964844 C 234.683594 207.023438 234.769531 207.003906 234.832031 206.898438 C 237.167969 201.5 239.003906 195.941406 240.34375 190.214844 C 240.988281 187.4375 241.519531 184.625 241.898438 181.792969 C 242.117188 180.179688 242.40625 178.527344 241.066406 177.367188 Z M 241.066406 177.367188"/><path fill="#DD4026" d="M 165.429688 177.789062 C 161.769531 177.429688 157.773438 177.25 154.65625 175.046875 C 152.367188 173.421875 151.121094 170.289062 148.1875 169.625 C 144.964844 168.90625 140.941406 170.960938 137.953125 171.890625 C 137.890625 171.910156 137.847656 171.953125 137.832031 172.019531 L 136.863281 171.734375 L 136.832031 171.621094 C 136.796875 171.503906 136.722656 171.460938 136.605469 171.492188 C 136.484375 171.527344 136.441406 171.601562 136.476562 171.71875 C 138.226562 177.78125 143.921875 181.03125 149.796875 182.28125 C 154.679688 183.328125 163.679688 185.007812 166.71875 179.523438 C 167.492188 178.152344 166.773438 177.921875 165.429688 177.789062 Z M 165.429688 177.789062"/><path fill="#DD4026" d="M 220.539062 173.707031 C 219.863281 172.566406 217.386719 172.132812 216.265625 171.921875 C 214.414062 171.582031 212.566406 171.609375 210.722656 172.007812 C 208.636719 172.4375 206.753906 173.304688 205.074219 174.617188 C 202.90625 176.328125 201.429688 178.78125 198.691406 179.714844 C 198.46875 179.789062 198.5625 180.144531 198.789062 180.066406 C 198.910156 180.027344 199.027344 179.976562 199.144531 179.933594 L 200.316406 180.058594 C 200.285156 180.171875 200.328125 180.234375 200.445312 180.253906 C 202.625 180.707031 204.699219 181.984375 206.96875 181.917969 C 209.546875 181.851562 212.265625 180.351562 214.625 179.46875 C 216.296875 178.84375 222.273438 176.621094 220.539062 173.707031 Z M 220.539062 173.707031"/><path fill="#FFB93F" d="M 215.972656 95.183594 C 215.957031 95.121094 215.917969 95.078125 215.855469 95.054688 C 215.796875 95.03125 215.738281 95.039062 215.683594 95.078125 C 213.679688 96.277344 211.699219 97.539062 209.789062 98.898438 C 208.128906 100.070312 204.605469 103.714844 202.355469 102.472656 C 202.0625 102.308594 201.796875 102.113281 201.554688 101.882812 C 201.058594 101.328125 200.585938 100.742188 200.144531 100.171875 C 199.339844 98.941406 198.664062 97.542969 198.140625 96.546875 C 197.328125 95.019531 196.589844 93.597656 195.277344 92.433594 C 195.230469 92.394531 195.183594 92.378906 195.125 92.386719 C 195.066406 92.394531 195.019531 92.421875 194.988281 92.46875 C 193.753906 94.675781 192.550781 96.894531 191.382812 99.128906 C 190.808594 100.25 190.234375 101.371094 189.664062 102.503906 C 189.152344 103.523438 188.980469 104.71875 187.765625 104.101562 C 186.90625 103.671875 185.777344 101.816406 185.277344 101.148438 C 184.582031 100.222656 183.929688 99.257812 183.273438 98.292969 C 181.921875 96.296875 180.585938 94.296875 179.261719 92.300781 C 179.191406 92.195312 179 92.160156 178.941406 92.300781 C 178.015625 94.4375 176.964844 96.511719 175.792969 98.527344 C 174.863281 100.101562 173.441406 103.363281 171.636719 104.003906 C 171.09375 104.574219 170.59375 104.53125 170.140625 103.882812 C 169.65625 103.535156 169.164062 103.199219 168.671875 102.863281 C 167.683594 102.195312 166.683594 101.550781 165.671875 100.925781 C 163.816406 99.785156 161.921875 98.726562 159.992188 97.726562 C 160.023438 97.285156 160.070312 96.839844 160.132812 96.394531 C 160.167969 96.160156 159.8125 96.058594 159.777344 96.292969 C 159.75 96.480469 159.730469 96.664062 159.707031 96.851562 L 159.417969 97.421875 C 159.214844 97.332031 159.039062 97.636719 159.246094 97.742188 L 159.613281 97.933594 C 159.222656 104.59375 162.191406 111.035156 163.265625 117.539062 C 163.742188 120.414062 164.414062 123.191406 166.8125 125.082031 C 169.277344 127.035156 172.675781 128.046875 175.664062 128.832031 C 183.351562 130.847656 191.105469 130.011719 198.882812 129.007812 C 201.789062 128.632812 205.429688 128.703125 208.097656 127.359375 C 210.675781 126.050781 211.382812 123.160156 212.058594 120.582031 C 213.242188 116.050781 214.230469 111.46875 215.1875 106.875 C 216.015625 102.914062 216.953125 99.207031 215.972656 95.183594 Z M 177.261719 96.242188 L 177.546875 95.695312 C 177.453125 95.871094 177.355469 96.054688 177.261719 96.242188 Z M 177.261719 96.242188"/><path fill="#E8A24D" d="M 239.941406 137.246094 C 235.523438 131.488281 230.554688 125.558594 223.898438 122.320312 C 223.820312 122.285156 223.75 122.296875 223.683594 122.355469 C 223.621094 122.414062 223.605469 122.484375 223.636719 122.566406 L 223.011719 122.871094 L 222.925781 122.792969 C 222.734375 122.648438 222.546875 122.96875 222.738281 123.113281 C 228 127.085938 229.425781 134.511719 226.125 140.171875 C 225.59375 141.082031 225.015625 141.917969 224.90625 142.988281 C 224.796875 144.054688 225.105469 145.269531 224.6875 146.371094 C 224.382812 147.167969 223.378906 147.910156 222.753906 148.511719 C 220.304688 150.867188 217.765625 153.191406 214.875 154.992188 C 211.886719 156.847656 208.980469 157.386719 205.605469 158.054688 C 202.679688 158.625 200.449219 160.910156 197.617188 161.859375 C 191.558594 163.894531 184.949219 163.125 178.828125 164.988281 C 178.730469 165.019531 178.6875 165.085938 178.699219 165.1875 C 178.714844 165.292969 178.773438 165.34375 178.878906 165.347656 C 194.808594 165.792969 210.835938 167.0625 226.148438 161.691406 C 231.628906 159.773438 238.570312 157.347656 242.292969 152.644531 C 246.296875 147.597656 243.351562 141.699219 239.941406 137.246094 Z M 239.941406 137.246094"/><path fill="#E8A24D" d="M 244.773438 196.261719 L 244.75 196.082031 C 244.445312 194.117188 243.554688 192.453125 241.371094 193.4375 C 240.03125 194.039062 239.574219 196.082031 239.078125 197.269531 C 238.457031 198.742188 237.835938 200.210938 237.214844 201.683594 C 236.773438 202.738281 235.863281 206.417969 234.449219 206.492188 C 233.558594 206.539062 231.273438 204.898438 230.488281 204.46875 C 229.1875 203.753906 227.910156 203.007812 226.652344 202.226562 C 224.296875 200.761719 222.066406 198.84375 219.503906 197.773438 C 217.09375 196.769531 215.078125 197.136719 212.675781 197.914062 C 210.71875 198.542969 208.953125 199.023438 206.882812 198.554688 C 205.503906 198.246094 204.210938 197.648438 202.871094 197.195312 C 198.402344 195.671875 193.796875 196.941406 191.410156 201.195312 C 191.394531 201.21875 191.386719 201.246094 191.386719 201.273438 L 189.925781 201.167969 C 189.851562 201.117188 189.785156 201.066406 189.714844 201.015625 C 189.53125 200.867188 189.269531 201.125 189.453125 201.273438 C 191.335938 202.785156 193.515625 202.683594 195.800781 202.316406 C 198.164062 201.9375 200.226562 201.632812 202.539062 202.378906 C 203.777344 202.777344 204.976562 203.316406 206.261719 203.507812 C 209.816406 204.023438 213.359375 202.03125 216.832031 203.386719 C 220.226562 204.714844 220.175781 208.121094 217.660156 210.414062 C 216.15625 211.785156 214.058594 212.695312 212.15625 213.351562 C 208.632812 214.550781 205.34375 214.457031 201.703125 214.355469 C 200.476562 214.265625 199.347656 214.5625 198.316406 215.238281 C 196.433594 216.390625 194.453125 217.34375 192.375 218.09375 C 190.269531 218.808594 188.097656 219.40625 185.902344 219.929688 L 185.589844 219.996094 L 179.382812 221.316406 C 176.046875 221.957031 172.703125 222.542969 169.449219 223.234375 C 169.226562 223.28125 169.308594 223.570312 169.496094 223.597656 C 182.136719 225.296875 194.777344 225.328125 207.425781 223.683594 C 218.164062 222.269531 230.058594 220.035156 238.03125 212.109375 C 241.320312 208.847656 243.875 204.6875 244.703125 200.097656 C 244.902344 198.824219 244.925781 197.542969 244.773438 196.261719 Z M 172.429688 223.765625 C 171.964844 223.746094 171.503906 223.691406 171.046875 223.601562 C 171.507812 223.65625 171.96875 223.714844 172.429688 223.765625 Z M 172.429688 223.765625"/><path fill="#913424" d="M 205.351562 182.601562 C 201.175781 181.148438 197.03125 179.601562 192.925781 177.960938 C 188.882812 176.339844 184.953125 174.34375 180.875 172.824219 C 177.691406 171.636719 175.226562 172.394531 172.351562 173.996094 C 171.023438 174.738281 169.691406 175.5625 168.75 176.78125 C 167.730469 178.101562 167.359375 180.390625 165.402344 180.777344 C 165.34375 180.789062 165.304688 180.824219 165.28125 180.878906 C 165.261719 180.933594 165.265625 180.984375 165.300781 181.035156 L 161.734375 182.917969 L 161.402344 182.917969 C 161.164062 182.917969 161.164062 183.277344 161.402344 183.285156 C 163.121094 183.339844 164.960938 183.40625 166.589844 182.714844 C 167.863281 182.179688 168.722656 181.066406 169.9375 180.464844 C 171.6875 179.59375 173.601562 180.445312 175.484375 180.117188 C 178.46875 179.597656 180.601562 178.261719 183.363281 180.5 C 183.910156 180.945312 184.480469 181.351562 185.082031 181.71875 C 185.523438 182.015625 185.992188 182.253906 186.488281 182.433594 C 187.871094 183.003906 189.332031 183.21875 191.226562 183.222656 C 195.914062 183.246094 200.632812 183.183594 205.3125 182.9375 C 205.386719 182.914062 205.429688 182.863281 205.441406 182.785156 C 205.449219 182.703125 205.421875 182.644531 205.351562 182.601562 Z M 205.351562 182.601562"/><path fill="#913424" d="M 243.9375 165.476562 C 242.671875 164.933594 239.925781 166.933594 239.097656 167.597656 C 237.023438 169.234375 235.851562 171.65625 233.894531 173.398438 C 230.257812 176.636719 225.589844 174.675781 221.839844 172.796875 C 221.785156 172.765625 221.730469 172.761719 221.675781 172.785156 C 221.621094 172.808594 221.582031 172.847656 221.566406 172.90625 C 220.640625 175.351562 219.113281 177.339844 216.980469 178.863281 C 216.929688 178.90625 216.902344 178.960938 216.902344 179.027344 C 216.902344 179.09375 216.929688 179.148438 216.980469 179.1875 L 216.574219 179.9375 L 216.53125 179.9375 C 216.296875 179.898438 216.199219 180.253906 216.433594 180.289062 C 218.863281 180.675781 220.363281 178.066406 222.792969 177.792969 C 225.296875 177.507812 227.730469 178.449219 230.242188 177.894531 C 232.441406 177.40625 234.402344 176.203125 236.125 174.78125 C 237.175781 173.925781 238.035156 172.871094 239.050781 171.972656 C 240.828125 170.398438 242.875 170.171875 245.15625 170.066406 C 245.277344 170.0625 245.339844 170.003906 245.34375 169.882812 C 245.339844 168.660156 245.324219 166.070312 243.9375 165.476562 Z M 243.71875 169.960938 C 243.386719 170.015625 243.050781 170.054688 242.710938 170.074219 C 243.042969 170.023438 243.382812 169.984375 243.71875 169.960938 Z M 243.71875 169.960938"/><path fill="#FFE97F" d="M 182.925781 130.746094 C 182.925781 130.621094 182.863281 130.5625 182.742188 130.5625 C 178.273438 130.648438 173.503906 130.773438 169.40625 128.714844 C 167.882812 127.96875 166.566406 126.957031 165.457031 125.683594 C 164.023438 124 163.910156 122.210938 163.042969 120.339844 C 162.253906 118.628906 161.140625 118.796875 159.578125 119.390625 C 156.492188 120.578125 153.542969 122.035156 150.730469 123.769531 C 141.300781 129.523438 128.828125 140.796875 130.246094 153.027344 C 130.140625 153.085938 130.121094 153.167969 130.183594 153.269531 L 130.304688 153.460938 C 130.367188 153.902344 130.449219 154.34375 130.546875 154.789062 C 130.597656 155.019531 130.957031 154.921875 130.902344 154.6875 C 130.867188 154.519531 130.832031 154.347656 130.796875 154.179688 C 133.722656 158.054688 139.082031 159.125 143.71875 159.519531 C 149.839844 160.007812 155.75 159.125 161.457031 156.867188 C 171.929688 152.746094 183.246094 142.90625 182.925781 130.746094 Z M 182.925781 130.746094"/><path fill="#FFE97F" d="M 176.113281 198.308594 C 172.878906 196.625 170.625 199.917969 167.648438 200.589844 C 162.535156 201.734375 158.242188 198.121094 153.453125 197.269531 C 151.777344 196.972656 150.347656 197.496094 148.832031 198.175781 C 147.671875 198.699219 146.523438 199.253906 145.371094 199.789062 C 144.511719 200.179688 142.410156 201.671875 141.539062 201.3125 C 140.917969 201.054688 140.769531 199.867188 140.429688 199.191406 C 140.050781 198.4375 139.578125 197.746094 139.019531 197.109375 C 137.796875 195.738281 136.308594 194.765625 134.554688 194.203125 C 134.433594 194.171875 134.359375 194.214844 134.324219 194.332031 C 133.734375 198.527344 133.597656 202.738281 133.921875 206.960938 C 133.941406 207.199219 134.308594 207.199219 134.292969 206.960938 C 134.246094 206.390625 136.082031 218.734375 148.007812 218.339844 C 151.972656 218.207031 155.277344 216.542969 158.648438 214.796875 C 162.894531 212.605469 167.445312 212.386719 171.875 210.832031 C 174.792969 209.808594 177.578125 207.941406 178.570312 204.878906 C 179.378906 202.371094 178.519531 199.566406 176.113281 198.308594 Z M 176.113281 198.308594"/><path fill="#FFF" d="M 171.472656 127.488281 C 169.847656 119.289062 168.21875 111.09375 166.585938 102.898438 C 166.636719 102.871094 166.667969 102.828125 166.679688 102.769531 C 166.691406 102.710938 166.679688 102.660156 166.644531 102.613281 L 166.496094 102.4375 C 166.4375 102.152344 166.382812 101.867188 166.328125 101.59375 C 166.28125 101.363281 161.679688 98.046875 158.898438 96.890625 C 158.753906 96.828125 158.648438 96.996094 158.671875 97.117188 C 159.914062 104.042969 161.25 111.128906 163.382812 117.839844 C 164.335938 120.816406 167 128.859375 171.34375 127.722656 C 171.472656 127.691406 171.515625 127.609375 171.472656 127.488281 Z M 171.472656 127.488281"/><path fill="#FFF" d="M 177.945312 129.164062 C 176.089844 120.9375 174.4375 112.671875 172.988281 104.363281 C 172.945312 104.128906 172.589844 104.230469 172.632812 104.460938 L 172.648438 104.558594 L 171.070312 105.960938 C 171.003906 105.898438 170.929688 105.886719 170.847656 105.929688 C 170.761719 105.976562 170.730469 106.046875 170.753906 106.136719 L 174.335938 121.300781 C 174.839844 123.425781 175.097656 125.867188 175.945312 127.898438 C 176.339844 128.835938 176.746094 129.34375 177.753906 129.398438 C 177.816406 129.398438 177.867188 129.375 177.90625 129.328125 C 177.949219 129.28125 177.960938 129.226562 177.945312 129.164062 Z M 177.945312 129.164062"/><path fill="#FFF" d="M 205.984375 102.730469 C 202.414062 104.890625 200.542969 100.367188 198.902344 98.042969 C 198.851562 97.972656 198.785156 97.945312 198.699219 97.96875 C 198.652344 97.886719 198.585938 97.855469 198.492188 97.878906 C 198.402344 97.902344 198.355469 97.964844 198.355469 98.058594 C 198.621094 108.527344 198.734375 118.992188 198.695312 129.460938 C 198.699219 129.585938 198.761719 129.644531 198.882812 129.648438 C 200.027344 129.617188 202.832031 129.886719 203.71875 128.898438 C 204.183594 128.375 204.140625 126.945312 204.234375 126.277344 C 204.445312 124.726562 204.640625 123.171875 204.824219 121.621094 C 205.546875 115.402344 206.015625 109.15625 206.257812 102.902344 C 206.257812 102.832031 206.230469 102.777344 206.167969 102.738281 C 206.109375 102.699219 206.046875 102.699219 205.984375 102.730469 Z M 205.761719 109.070312 C 205.703125 110.34375 205.609375 111.636719 205.476562 112.910156 C 205.589844 111.628906 205.683594 110.351562 205.761719 109.070312 Z M 205.761719 109.070312"/><path fill="#FFF" d="M 210.195312 99.046875 C 210.195312 99.132812 210.195312 99.21875 210.195312 99.304688 L 209.664062 100.023438 C 209.601562 99.992188 209.542969 99.992188 209.480469 100.023438 C 209.421875 100.054688 209.386719 100.101562 209.375 100.171875 C 208.421875 109.390625 207.402344 118.597656 206.308594 127.796875 C 206.289062 127.945312 206.476562 128.019531 206.59375 127.957031 C 207.816406 127.269531 207.789062 125.65625 208.027344 124.40625 C 208.496094 121.757812 208.902344 119.101562 209.246094 116.433594 C 209.996094 110.664062 210.425781 104.859375 210.59375 99.046875 C 210.59375 98.914062 210.527344 98.847656 210.394531 98.847656 C 210.261719 98.847656 210.195312 98.914062 210.195312 99.046875 Z M 210.195312 99.046875"/><path fill="#4C2B15" d="M 244.90625 175.804688 C 244.949219 175.636719 244.960938 175.464844 244.941406 175.292969 C 247.042969 172.1875 247.882812 168.265625 246.40625 164.703125 C 246.335938 164.539062 246.242188 164.390625 246.121094 164.261719 C 248.78125 160.265625 247.679688 155.164062 244.070312 152.214844 C 245.53125 149.585938 246.054688 146.550781 244.929688 143.324219 C 242.976562 137.589844 238.433594 131.730469 233.96875 127.648438 C 228.441406 122.59375 221.597656 119.414062 214.644531 116.796875 C 216.191406 110.113281 217.507812 103.300781 218.195312 96.511719 C 218.332031 96.222656 218.375 95.917969 218.320312 95.601562 L 218.304688 95.480469 C 218.304688 95.441406 218.304688 95.398438 218.304688 95.355469 C 218.335938 95.078125 218.28125 94.820312 218.148438 94.574219 C 218.148438 94.550781 218.148438 94.53125 218.148438 94.507812 C 218.046875 93.855469 217.320312 93.457031 216.714844 93.425781 C 214.15625 93.296875 212.265625 95.355469 210.398438 96.835938 L 203.664062 102.191406 L 196.414062 90.390625 C 196.261719 90.136719 196.050781 89.949219 195.785156 89.820312 C 195.519531 89.695312 195.238281 89.648438 194.945312 89.6875 C 194.652344 89.726562 194.394531 89.839844 194.167969 90.03125 C 193.941406 90.222656 193.789062 90.457031 193.703125 90.738281 C 192.269531 95.101562 190.800781 99.429688 188.546875 103.425781 C 185.449219 99.375 182.542969 95.1875 179.835938 90.863281 C 179.296875 90.007812 177.753906 89.796875 177.277344 90.863281 C 175.367188 95.144531 173.296875 99.347656 171.058594 103.46875 C 167.230469 100.078125 163.183594 96.96875 158.917969 94.144531 C 157.570312 93.253906 156.308594 94.949219 156.914062 96.125 C 156.914062 96.160156 156.914062 96.191406 156.914062 96.230469 C 158.34375 103.21875 159.546875 110.28125 161.375 117.179688 C 147.878906 122.085938 132.96875 132.167969 129.148438 146.65625 C 128.128906 150.515625 128.269531 154.125 130.242188 157.339844 C 127.09375 160.480469 126.519531 165.523438 129.359375 169.136719 C 130.113281 170.121094 131.039062 170.902344 132.136719 171.480469 C 131.589844 172.589844 131.277344 173.761719 131.199219 174.996094 C 131.117188 176.226562 131.277344 177.429688 131.675781 178.597656 C 128.996094 181.605469 127.8125 187.136719 129.589844 190.761719 C 130.535156 192.699219 132.289062 192.976562 133.820312 193.851562 C 130.957031 198.234375 131.929688 205.269531 133.65625 209.839844 C 134.441406 211.972656 135.601562 213.875 137.140625 215.546875 C 142.179688 220.9375 150.371094 222.773438 157.347656 223.949219 C 164.257812 225.109375 171.269531 225.613281 178.261719 225.878906 C 187.367188 226.222656 196.550781 226.339844 205.613281 225.292969 C 216.28125 224.0625 227.515625 221.417969 236.269531 214.878906 C 238.691406 213.109375 240.800781 211.023438 242.597656 208.625 C 245.953125 204.058594 246.734375 198.007812 245.878906 192.523438 C 245.878906 192.476562 245.855469 192.441406 245.847656 192.402344 C 246.667969 191.375 247.144531 190.207031 247.28125 188.902344 C 247.484375 187.140625 246.96875 185.5625 246.199219 183.992188 C 244.851562 181.238281 244.125 178.886719 244.90625 175.804688 Z M 234.304688 205.414062 C 229.066406 201.601562 223.519531 198.296875 217.667969 195.5 C 217.441406 195.269531 217.164062 195.140625 216.835938 195.117188 C 212.257812 193 207.511719 191.382812 202.59375 190.261719 C 212.476562 188.816406 222.164062 186.539062 231.660156 183.4375 C 234.699219 182.4375 237.878906 181.300781 240.585938 179.511719 C 239.886719 188.484375 237.792969 197.117188 234.296875 205.414062 Z M 142.558594 200.027344 C 142.402344 199.359375 142.238281 198.691406 142.070312 198.03125 C 142.066406 197.828125 142.019531 197.640625 141.929688 197.460938 C 140.957031 193.625 139.835938 189.835938 138.5625 186.089844 C 139.214844 186.429688 139.882812 186.738281 140.570312 187.019531 C 147.804688 190.015625 155.925781 191.199219 163.859375 191.742188 C 161.804688 192.210938 159.761719 192.730469 157.734375 193.3125 C 152.355469 194.847656 147.078125 196.761719 142.558594 200.027344 Z M 151.054688 184.460938 C 158.742188 185.578125 166.058594 184.03125 170.441406 177.160156 C 170.503906 177.058594 170.558594 176.949219 170.597656 176.835938 C 170.722656 176.75 170.847656 176.671875 170.96875 176.582031 C 173.589844 174.582031 175.773438 173.089844 179.230469 173.65625 C 182.445312 174.1875 185.21875 176.011719 187.988281 177.601562 C 189.824219 178.695312 191.75 179.597656 193.765625 180.304688 C 198.921875 182.707031 204.535156 184.300781 210.257812 183.140625 C 212.75 182.652344 215.058594 181.710938 217.179688 180.320312 C 219.304688 178.925781 221.082031 177.1875 222.523438 175.101562 C 226.144531 176.710938 229.972656 178.035156 233.605469 175.589844 C 235.839844 174.078125 236.851562 171.523438 238.726562 169.675781 C 240.230469 168.191406 242.203125 167.578125 243.882812 166.457031 C 246.339844 174.558594 236.175781 178.890625 229.972656 180.878906 C 221.757812 183.515625 213.390625 185.535156 204.875 186.9375 C 196.703125 188.304688 188.472656 189.105469 180.1875 189.34375 C 179.964844 189.246094 179.730469 189.210938 179.488281 189.238281 C 179.015625 189.285156 178.542969 189.339844 178.054688 189.386719 C 169.378906 189.492188 160.714844 188.863281 152.347656 187.238281 C 147.902344 186.382812 143.015625 185.378906 139.085938 183.023438 C 135.855469 181.082031 132.785156 176.785156 134.546875 173.070312 C 136.953125 180.015625 144.0625 183.449219 151.054688 184.460938 Z M 137.496094 172.46875 C 138.941406 172.371094 140.371094 172.140625 141.773438 171.777344 C 144.738281 171.058594 147.664062 170.28125 150.125 172.582031 C 152.007812 174.34375 153.363281 176.335938 155.851562 177.320312 C 158.6875 178.4375 162.050781 179.09375 165.199219 178.746094 C 161.375 181.929688 156.175781 182.347656 150.984375 181.496094 C 145.375 180.574219 139.605469 177.941406 137.496094 172.46875 Z M 202.5625 180.246094 C 202.792969 180.144531 203.019531 180.03125 203.246094 179.90625 C 205.386719 178.71875 206.78125 176.695312 208.546875 175.074219 C 211.515625 172.34375 215.089844 171.980469 218.769531 173.453125 C 219.109375 173.59375 219.445312 173.742188 219.789062 173.886719 C 217.332031 177.277344 213.605469 179.496094 209.476562 180.3125 C 207.167969 180.742188 204.863281 180.714844 202.5625 180.238281 Z M 159.425781 195.878906 C 166 194.046875 172.683594 192.808594 179.480469 192.167969 C 179.558594 192.160156 179.640625 192.144531 179.714844 192.125 C 183.496094 192.0625 187.269531 191.875 191.042969 191.570312 C 191.265625 191.707031 191.511719 191.78125 191.773438 191.789062 C 199.273438 192.074219 206.402344 193.894531 213.160156 196.707031 C 210.792969 197.488281 208.410156 197.519531 206.019531 196.804688 C 203.21875 196.011719 200.527344 194.789062 197.542969 195.25 C 194.488281 195.722656 193.113281 198.175781 190.589844 199.59375 C 187.558594 201.308594 184.144531 200.648438 181.421875 198.753906 C 179.386719 197.34375 177.375 195.527344 174.765625 195.402344 C 172.296875 195.28125 170.402344 196.652344 168.539062 198.074219 C 167.542969 198.828125 166.476562 199.703125 165.230469 199.984375 C 163.070312 200.472656 160.867188 199.226562 158.964844 198.402344 C 157.777344 197.890625 156.5625 197.460938 155.3125 197.121094 C 156.667969 196.675781 158.046875 196.273438 159.425781 195.878906 Z M 243.035156 184.285156 C 243.683594 185.53125 244.449219 186.773438 244.398438 188.210938 C 244.382812 188.621094 244.304688 189.023438 244.167969 189.410156 C 244.03125 189.800781 243.84375 190.164062 243.601562 190.496094 C 243.355469 190.828125 243.070312 191.121094 242.738281 191.371094 C 242.410156 191.617188 242.050781 191.816406 241.664062 191.957031 C 242.234375 189.433594 242.691406 186.878906 243.035156 184.285156 Z M 172.765625 106.570312 C 174.921875 102.675781 176.925781 98.710938 178.78125 94.667969 C 181.566406 98.933594 184.535156 103.074219 187.6875 107.089844 C 188.304688 107.878906 189.546875 107.5 190.011719 106.804688 C 192.453125 103.019531 194.097656 98.859375 195.546875 94.625 L 201.992188 105.121094 C 202.535156 106 203.570312 106.007812 204.316406 105.40625 L 210.265625 100.691406 C 211.511719 99.703125 213.414062 97.582031 215.210938 96.738281 C 214.378906 104.878906 212.566406 113.085938 210.605469 120.988281 C 210.140625 122.851562 209.503906 124.789062 207.800781 125.886719 C 206.097656 126.980469 203.882812 127.351562 201.984375 127.816406 C 197.652344 128.867188 193.253906 129.410156 188.792969 129.449219 C 184.480469 129.496094 180.21875 129.066406 176.003906 128.160156 C 173.992188 127.75 172.019531 127.210938 170.078125 126.546875 C 167.398438 125.589844 166.542969 123.957031 165.710938 121.382812 C 163.335938 114.007812 161.964844 106.371094 160.472656 98.78125 C 163.960938 101.273438 167.289062 103.96875 170.445312 106.871094 C 170.609375 107.027344 170.800781 107.140625 171.015625 107.214844 C 171.230469 107.285156 171.453125 107.304688 171.679688 107.277344 C 171.90625 107.246094 172.113281 107.171875 172.304688 107.046875 C 172.492188 106.921875 172.648438 106.765625 172.765625 106.570312 Z M 139.484375 134.707031 C 145.769531 128.113281 153.65625 123.148438 162.207031 120.03125 C 162.242188 120.144531 162.269531 120.261719 162.304688 120.371094 C 163.191406 123.320312 164.023438 126.597656 166.820312 128.3125 C 169.734375 130.089844 173.640625 130.734375 176.953125 131.347656 C 184.402344 132.730469 191.847656 132.742188 199.300781 131.390625 C 202.566406 130.796875 206.40625 130.167969 209.285156 128.429688 C 211.675781 126.984375 212.808594 124.375 213.449219 121.769531 C 213.617188 121.078125 213.785156 120.382812 213.953125 119.691406 C 219.558594 121.800781 225.125 124.308594 229.863281 128.027344 C 234.097656 131.359375 237.246094 135.558594 240 140.128906 C 242.113281 143.65625 243.527344 146.980469 241.472656 150.894531 C 239.636719 154.394531 236.054688 156.480469 232.503906 157.910156 C 225.421875 160.777344 217.867188 162.515625 210.308594 163.542969 C 201.390625 164.75 192.363281 164.96875 183.378906 164.914062 C 172.4375 164.589844 161.460938 163.976562 150.585938 162.738281 C 143.460938 161.933594 131.179688 160.796875 131.394531 151.066406 C 131.535156 144.71875 135.261719 139.128906 139.484375 134.707031 Z M 131.332031 166.824219 C 129.816406 164.4375 130.390625 161.65625 132.109375 159.675781 C 134.972656 162.566406 138.792969 163.9375 142.753906 164.613281 C 150.695312 165.964844 158.78125 166.554688 166.820312 167.066406 C 172.335938 167.414062 177.855469 167.699219 183.382812 167.863281 C 200.671875 167.96875 219.21875 167.21875 235.214844 159.9375 C 237.996094 158.691406 240.390625 156.917969 242.394531 154.625 C 244.183594 156.132812 245.136719 158.464844 244.5 160.820312 C 243.746094 163.628906 241.617188 164.511719 239.277344 165.726562 C 237.527344 166.632812 236.269531 167.902344 235.101562 169.464844 C 233.574219 171.523438 232.238281 173.839844 229.371094 173.984375 C 224.339844 174.226562 220.324219 169.863281 215.304688 169.582031 C 210.550781 169.316406 207.441406 171.996094 204.355469 175.183594 C 201.308594 178.324219 197.910156 178.492188 194.492188 177.394531 L 194.371094 177.335938 C 194.226562 177.269531 194.078125 177.222656 193.921875 177.199219 C 192.382812 176.617188 190.902344 175.902344 189.488281 175.0625 C 185.59375 172.824219 181.550781 170.328125 176.867188 170.597656 C 174.894531 170.699219 173.101562 171.324219 171.496094 172.46875 C 169.242188 174.039062 167.585938 175.816406 164.648438 175.878906 C 162.179688 175.90625 159.773438 175.53125 157.429688 174.757812 C 154.796875 173.867188 153.582031 171.554688 151.53125 169.90625 C 147.609375 166.738281 143.167969 168.648438 138.777344 169.445312 C 135.894531 169.953125 133.011719 169.453125 131.332031 166.824219 Z M 133.179688 181.605469 C 133.574219 182.160156 134.011719 182.679688 134.492188 183.160156 C 134.496094 183.320312 134.523438 183.480469 134.578125 183.632812 C 135.738281 186.816406 136.789062 190.03125 137.730469 193.28125 C 137.609375 193.089844 137.476562 192.910156 137.328125 192.738281 C 136.207031 191.503906 134.652344 191.394531 133.316406 190.542969 C 130.75 188.917969 131.597656 184.328125 133.179688 181.605469 Z M 210.839844 221.605469 C 202.785156 223 194.617188 223.230469 186.460938 223.136719 C 179.070312 223.054688 171.667969 222.773438 164.324219 221.964844 C 156.722656 221.128906 147.808594 220 141.40625 215.398438 C 139.566406 214.085938 138.132812 212.421875 137.109375 210.414062 C 136.390625 208.945312 135.886719 207.40625 135.59375 205.800781 C 135.050781 203.082031 134.445312 198.832031 135.878906 196.09375 C 136.199219 196.753906 136.488281 197.441406 137.003906 197.992188 C 137.667969 198.6875 138.460938 199.171875 139.382812 199.449219 C 139.667969 200.636719 139.957031 201.828125 140.214844 203.023438 C 140.472656 204.21875 141.902344 204.355469 142.6875 203.675781 C 144.890625 201.816406 147.316406 200.308594 149.960938 199.160156 L 150.042969 199.171875 C 153.796875 199.425781 156.816406 200.855469 160.265625 202.175781 C 162.941406 203.203125 165.589844 203.40625 168.148438 201.957031 C 170.507812 200.628906 172.667969 197.566406 175.710938 198.605469 C 178.589844 199.585938 180.523438 202.242188 183.519531 203.121094 C 184.800781 203.488281 186.109375 203.625 187.4375 203.527344 C 188.769531 203.433594 190.039062 203.109375 191.257812 202.5625 C 194.394531 201.136719 196.003906 197.765625 199.828125 198.179688 C 203.023438 198.523438 205.875 200.21875 209.144531 200.316406 C 211.875 200.378906 214.414062 199.71875 216.765625 198.335938 C 222.886719 201.25 228.691406 204.929688 234.167969 208.960938 C 234.765625 209.394531 235.886719 209.101562 236.195312 208.429688 C 238.109375 204.125 239.675781 199.699219 240.882812 195.148438 C 241.679688 195.023438 242.441406 194.796875 243.175781 194.464844 C 245.003906 211.867188 224.867188 219.171875 210.839844 221.605469 Z M 210.839844 221.605469"/><path fill="#FFE97F" d="M 188.257812 150.636719 C 189.179688 151.277344 190.179688 151.753906 191.257812 152.066406 C 191.449219 152.117188 191.640625 152.128906 191.835938 152.105469 C 192.03125 152.082031 192.214844 152.019531 192.386719 151.921875 C 192.558594 151.828125 192.703125 151.699219 192.824219 151.546875 C 192.945312 151.390625 193.03125 151.21875 193.082031 151.03125 C 193.136719 150.839844 193.148438 150.648438 193.125 150.453125 C 193.101562 150.257812 193.039062 150.078125 192.941406 149.90625 C 192.847656 149.734375 192.71875 149.589844 192.5625 149.46875 C 192.410156 149.347656 192.238281 149.261719 192.046875 149.210938 C 191.21875 148.960938 190.453125 148.578125 189.753906 148.066406 C 189.101562 147.605469 188.109375 147.953125 187.734375 148.597656 C 187.296875 149.335938 187.609375 150.152344 188.261719 150.613281 Z M 188.257812 150.636719"/><path fill="#FFE97F" d="M 197.640625 143.730469 L 199.449219 143.730469 C 199.640625 143.722656 199.824219 143.679688 199.996094 143.601562 C 200.167969 143.523438 200.324219 143.414062 200.453125 143.277344 C 200.585938 143.140625 200.6875 142.984375 200.757812 142.808594 C 200.828125 142.628906 200.867188 142.445312 200.867188 142.257812 C 200.867188 142.066406 200.828125 141.882812 200.757812 141.707031 C 200.6875 141.53125 200.585938 141.375 200.453125 141.238281 C 200.324219 141.097656 200.167969 140.992188 199.996094 140.914062 C 199.824219 140.835938 199.640625 140.789062 199.449219 140.78125 L 197.640625 140.78125 C 197.441406 140.773438 197.246094 140.804688 197.054688 140.875 C 196.867188 140.945312 196.699219 141.050781 196.550781 141.191406 C 196.40625 141.328125 196.292969 141.492188 196.214844 141.675781 C 196.136719 141.863281 196.09375 142.054688 196.09375 142.257812 C 196.09375 142.457031 196.136719 142.652344 196.214844 142.835938 C 196.292969 143.023438 196.40625 143.183594 196.550781 143.324219 C 196.699219 143.460938 196.867188 143.566406 197.054688 143.636719 C 197.246094 143.710938 197.441406 143.742188 197.640625 143.730469 Z M 197.640625 143.730469"/><path fill="#FFE97F" d="M 208.050781 143.082031 C 208.28125 143.699219 208.363281 144.335938 208.289062 144.992188 C 208.292969 145.1875 208.328125 145.375 208.40625 145.558594 C 208.480469 145.738281 208.589844 145.894531 208.726562 146.035156 C 208.867188 146.171875 209.023438 146.28125 209.207031 146.355469 C 209.386719 146.429688 209.574219 146.46875 209.773438 146.46875 C 209.964844 146.464844 210.152344 146.421875 210.332031 146.347656 C 210.511719 146.269531 210.667969 146.164062 210.804688 146.027344 C 210.945312 145.886719 211.050781 145.730469 211.128906 145.550781 C 211.203125 145.375 211.246094 145.1875 211.25 144.992188 C 211.3125 144.074219 211.195312 143.175781 210.902344 142.296875 C 210.65625 141.566406 209.871094 141.011719 209.082031 141.269531 C 208.351562 141.503906 207.789062 142.296875 208.050781 143.082031 Z M 208.050781 143.082031"/><path fill="#FFE97F" d="M 218.078125 140.738281 L 219.390625 140.738281 C 219.582031 140.726562 219.765625 140.683594 219.9375 140.605469 C 220.113281 140.527344 220.265625 140.417969 220.398438 140.28125 C 220.527344 140.144531 220.628906 139.988281 220.699219 139.8125 C 220.773438 139.636719 220.808594 139.453125 220.808594 139.261719 C 220.808594 139.070312 220.773438 138.886719 220.699219 138.710938 C 220.628906 138.535156 220.527344 138.378906 220.398438 138.242188 C 220.265625 138.105469 220.113281 137.996094 219.9375 137.917969 C 219.765625 137.839844 219.582031 137.796875 219.390625 137.789062 L 218.078125 137.789062 C 217.886719 137.796875 217.703125 137.839844 217.53125 137.917969 C 217.355469 137.996094 217.203125 138.105469 217.070312 138.242188 C 216.941406 138.378906 216.839844 138.535156 216.765625 138.710938 C 216.695312 138.886719 216.660156 139.070312 216.660156 139.261719 C 216.660156 139.453125 216.695312 139.636719 216.765625 139.8125 C 216.839844 139.988281 216.941406 140.144531 217.070312 140.28125 C 217.203125 140.417969 217.355469 140.527344 217.53125 140.605469 C 217.703125 140.683594 217.886719 140.726562 218.078125 140.738281 Z M 218.078125 140.738281"/><path fill="#FFE97F" d="M 204.765625 134.1875 L 206.082031 134.1875 C 206.277344 134.1875 206.464844 134.148438 206.648438 134.074219 C 206.828125 134 206.988281 133.894531 207.125 133.753906 C 207.265625 133.617188 207.371094 133.457031 207.449219 133.277344 C 207.523438 133.097656 207.558594 132.910156 207.558594 132.714844 C 207.558594 132.519531 207.523438 132.332031 207.449219 132.148438 C 207.371094 131.96875 207.265625 131.8125 207.125 131.671875 C 206.988281 131.535156 206.828125 131.429688 206.648438 131.351562 C 206.464844 131.277344 206.277344 131.242188 206.082031 131.242188 L 204.765625 131.242188 C 204.570312 131.242188 204.382812 131.277344 204.199219 131.351562 C 204.019531 131.429688 203.859375 131.535156 203.722656 131.671875 C 203.582031 131.8125 203.476562 131.96875 203.402344 132.148438 C 203.324219 132.332031 203.289062 132.519531 203.289062 132.714844 C 203.289062 132.910156 203.324219 133.097656 203.402344 133.277344 C 203.476562 133.457031 203.582031 133.617188 203.722656 133.753906 C 203.859375 133.894531 204.019531 134 204.199219 134.074219 C 204.382812 134.148438 204.570312 134.1875 204.765625 134.1875 Z M 204.765625 134.1875"/><path fill="#FFE97F" d="M 215.1875 148.8125 L 215.355469 149.796875 C 215.460938 150.179688 215.6875 150.472656 216.035156 150.675781 C 216.203125 150.777344 216.386719 150.839844 216.578125 150.867188 C 216.773438 150.890625 216.964844 150.882812 217.15625 150.832031 C 217.347656 150.78125 217.519531 150.699219 217.675781 150.578125 C 217.832031 150.460938 217.960938 150.316406 218.058594 150.148438 C 218.246094 149.785156 218.296875 149.40625 218.207031 149.007812 L 218.042969 148.027344 C 217.9375 147.640625 217.710938 147.34375 217.363281 147.144531 C 217.195312 147.042969 217.011719 146.980469 216.816406 146.957031 C 216.621094 146.929688 216.429688 146.941406 216.242188 146.988281 C 216.050781 147.039062 215.878906 147.121094 215.722656 147.242188 C 215.566406 147.359375 215.4375 147.503906 215.335938 147.671875 C 215.152344 148.035156 215.101562 148.414062 215.1875 148.8125 Z M 215.1875 148.8125"/><path fill="#FFE97F" d="M 229.351562 141.980469 C 230.453125 142.261719 231.570312 142.390625 232.703125 142.363281 C 234.605469 142.3125 234.613281 139.363281 232.703125 139.414062 C 231.835938 139.441406 230.980469 139.347656 230.140625 139.128906 C 228.296875 138.65625 227.507812 141.5 229.351562 141.984375 Z M 229.351562 141.980469"/><path fill="#FFE97F" d="M 202.519531 152.789062 L 202.519531 150.007812 C 202.519531 148.109375 199.5625 148.109375 199.5625 150.007812 L 199.5625 152.792969 C 199.5625 154.6875 202.519531 154.691406 202.519531 152.792969 Z M 202.519531 152.789062"/><path fill="#FFE97F" d="M 188.867188 134.5 C 188.808594 135.59375 188.96875 136.65625 189.34375 137.683594 C 189.402344 137.871094 189.492188 138.039062 189.613281 138.191406 C 189.734375 138.34375 189.878906 138.464844 190.046875 138.5625 C 190.21875 138.65625 190.398438 138.71875 190.589844 138.746094 C 190.785156 138.773438 190.976562 138.761719 191.164062 138.714844 C 191.886719 138.519531 192.476562 137.652344 192.199219 136.902344 C 191.902344 136.128906 191.777344 135.328125 191.824219 134.5 C 191.824219 134.304688 191.785156 134.113281 191.710938 133.933594 C 191.636719 133.753906 191.527344 133.59375 191.390625 133.457031 C 191.25 133.320312 191.09375 133.210938 190.910156 133.136719 C 190.730469 133.0625 190.542969 133.023438 190.34375 133.023438 C 190.148438 133.023438 189.960938 133.0625 189.78125 133.136719 C 189.597656 133.210938 189.4375 133.320312 189.300781 133.457031 C 189.160156 133.59375 189.054688 133.753906 188.980469 133.933594 C 188.90625 134.113281 188.867188 134.304688 188.867188 134.5 Z M 188.867188 134.5"/><path fill="#FFE97F" d="M 173.46875 153.882812 L 175.097656 155.535156 C 175.234375 155.664062 175.394531 155.765625 175.574219 155.832031 C 175.753906 155.898438 175.9375 155.929688 176.128906 155.925781 C 176.320312 155.921875 176.503906 155.882812 176.679688 155.808594 C 176.855469 155.734375 177.011719 155.628906 177.144531 155.496094 C 177.28125 155.359375 177.386719 155.207031 177.460938 155.03125 C 177.535156 154.855469 177.574219 154.671875 177.578125 154.484375 C 177.582031 154.292969 177.550781 154.109375 177.484375 153.929688 C 177.417969 153.753906 177.320312 153.59375 177.191406 153.453125 L 175.5625 151.800781 C 175.421875 151.671875 175.261719 151.574219 175.082031 151.503906 C 174.90625 151.4375 174.71875 151.40625 174.53125 151.410156 C 174.339844 151.414062 174.15625 151.453125 173.980469 151.527344 C 173.804688 151.601562 173.648438 151.707031 173.511719 151.839844 C 173.378906 151.976562 173.273438 152.128906 173.199219 152.304688 C 173.121094 152.480469 173.082031 152.664062 173.078125 152.855469 C 173.074219 153.042969 173.105469 153.226562 173.171875 153.40625 C 173.242188 153.585938 173.339844 153.742188 173.46875 153.882812 Z M 173.46875 153.882812"/><path fill="#FFE97F" d="M 187.609375 160.140625 C 188.4375 160.140625 189.238281 160.28125 190.015625 160.566406 C 190.769531 160.832031 191.632812 160.261719 191.835938 159.535156 C 191.882812 159.347656 191.894531 159.15625 191.867188 158.964844 C 191.84375 158.773438 191.78125 158.589844 191.683594 158.421875 C 191.589844 158.253906 191.464844 158.109375 191.3125 157.988281 C 191.160156 157.867188 190.992188 157.777344 190.804688 157.722656 C 189.769531 157.359375 188.703125 157.183594 187.609375 157.191406 C 185.707031 157.191406 185.703125 160.152344 187.609375 160.140625 Z M 187.609375 160.140625"/><path fill="#FFE97F" d="M 162.824219 158.910156 C 163.007812 156.996094 163.320312 155.105469 163.757812 153.234375 C 164.183594 151.386719 161.332031 150.601562 160.890625 152.449219 C 160.402344 154.582031 160.058594 156.734375 159.851562 158.910156 C 159.671875 160.796875 162.632812 160.78125 162.8125 158.910156 Z M 162.824219 158.910156"/><path fill="#FFE97F" d="M 177.878906 142.097656 L 178.675781 144.238281 C 178.945312 144.957031 179.6875 145.527344 180.496094 145.265625 C 181.203125 145.039062 181.816406 144.226562 181.527344 143.453125 L 180.730469 141.316406 C 180.460938 140.59375 179.714844 140.027344 178.910156 140.285156 C 178.203125 140.515625 177.589844 141.324219 177.878906 142.097656 Z M 177.878906 142.097656"/><path fill="#FFE97F" d="M 216.621094 132.769531 C 217.355469 132.429688 218.003906 131.972656 218.566406 131.394531 C 218.707031 131.257812 218.8125 131.097656 218.886719 130.917969 C 218.960938 130.738281 219 130.546875 219 130.351562 C 219 130.15625 218.964844 129.96875 218.886719 129.789062 C 218.8125 129.609375 218.707031 129.449219 218.566406 129.308594 C 218.429688 129.171875 218.269531 129.066406 218.085938 128.992188 C 217.90625 128.914062 217.71875 128.878906 217.519531 128.878906 C 217.324219 128.878906 217.136719 128.917969 216.953125 128.992188 C 216.773438 129.066406 216.613281 129.171875 216.476562 129.3125 C 216.371094 129.417969 216.261719 129.523438 216.148438 129.621094 C 216.109375 129.652344 216.027344 129.75 215.976562 129.761719 L 216.101562 129.667969 L 215.960938 129.765625 C 215.695312 129.941406 215.417969 130.09375 215.128906 130.222656 C 214.417969 130.542969 214.195312 131.621094 214.597656 132.238281 C 215.070312 132.972656 215.863281 133.097656 216.621094 132.769531 Z M 216.621094 132.769531"/><g fill="#FFF"><g><g><path d="M 20.921875 -8.0625 L 21.671875 -8.609375 C 22.617188 -9.171875 23.289062 -9.453125 23.6875 -9.453125 C 24.550781 -9.453125 25.488281 -8.664062 26.5 -7.09375 C 27.113281 -6.113281 27.421875 -5.328125 27.421875 -4.734375 C 27.421875 -4.148438 27.234375 -3.660156 26.859375 -3.265625 C 26.484375 -2.878906 26.039062 -2.53125 25.53125 -2.21875 C 25.03125 -1.914062 24.546875 -1.625 24.078125 -1.34375 C 23.617188 -1.0625 22.675781 -0.695312 21.25 -0.25 C 19.820312 0.195312 18.441406 0.421875 17.109375 0.421875 C 15.785156 0.421875 14.441406 0.25 13.078125 -0.09375 C 11.722656 -0.445312 10.320312 -1.035156 8.875 -1.859375 C 7.4375 -2.691406 6.144531 -3.703125 5 -4.890625 C 3.851562 -6.078125 2.90625 -7.601562 2.15625 -9.46875 C 1.414062 -11.332031 1.046875 -13.351562 1.046875 -15.53125 C 1.046875 -17.71875 1.410156 -19.703125 2.140625 -21.484375 C 2.867188 -23.265625 3.800781 -24.734375 4.9375 -25.890625 C 6.070312 -27.054688 7.363281 -28.03125 8.8125 -28.8125 C 11.5625 -30.320312 14.320312 -31.078125 17.09375 -31.078125 C 18.40625 -31.078125 19.738281 -30.875 21.09375 -30.46875 C 22.457031 -30.0625 23.488281 -29.648438 24.1875 -29.234375 L 25.203125 -28.640625 C 25.703125 -28.335938 26.09375 -28.085938 26.375 -27.890625 C 27.101562 -27.296875 27.46875 -26.628906 27.46875 -25.890625 C 27.46875 -25.148438 27.175781 -24.375 26.59375 -23.5625 C 25.5 -22.050781 24.515625 -21.296875 23.640625 -21.296875 C 23.140625 -21.296875 22.425781 -21.601562 21.5 -22.21875 C 20.320312 -23.164062 18.753906 -23.640625 16.796875 -23.640625 C 14.972656 -23.640625 13.179688 -23.007812 11.421875 -21.75 C 10.578125 -21.132812 9.875 -20.265625 9.3125 -19.140625 C 8.757812 -18.023438 8.484375 -16.757812 8.484375 -15.34375 C 8.484375 -13.9375 8.757812 -12.671875 9.3125 -11.546875 C 9.875 -10.429688 10.59375 -9.550781 11.46875 -8.90625 C 13.175781 -7.675781 14.953125 -7.0625 16.796875 -7.0625 C 17.671875 -7.0625 18.488281 -7.171875 19.25 -7.390625 C 20.019531 -7.617188 20.578125 -7.84375 20.921875 -8.0625 Z M 20.921875 -8.0625" transform="translate(107.613 269.496)"/></g></g><g><g><path d="M 25.234375 -5.203125 C 25.660156 -4.203125 25.875 -3.476562 25.875 -3.03125 C 25.875 -1.957031 25.003906 -1.0625 23.265625 -0.34375 C 22.367188 0.0507812 21.644531 0.25 21.09375 0.25 C 20.550781 0.25 20.101562 0.117188 19.75 -0.140625 C 19.40625 -0.410156 19.148438 -0.6875 18.984375 -0.96875 C 18.703125 -1.5 17.609375 -4.03125 15.703125 -8.5625 L 14.40625 -8.484375 L 9.109375 -8.484375 L 9.109375 -3.734375 C 9.109375 -3.085938 9.085938 -2.601562 9.046875 -2.28125 C 9.003906 -1.96875 8.875 -1.597656 8.65625 -1.171875 C 8.257812 -0.421875 7.164062 -0.046875 5.375 -0.046875 C 3.414062 -0.046875 2.269531 -0.5625 1.9375 -1.59375 C 1.769531 -2.070312 1.6875 -2.800781 1.6875 -3.78125 L 1.6875 -27.09375 C 1.6875 -27.738281 1.707031 -28.21875 1.75 -28.53125 C 1.789062 -28.851562 1.921875 -29.226562 2.140625 -29.65625 C 2.535156 -30.40625 3.628906 -30.78125 5.421875 -30.78125 L 14.484375 -30.78125 C 16.953125 -30.78125 19.347656 -29.882812 21.671875 -28.09375 C 22.796875 -27.226562 23.71875 -26.050781 24.4375 -24.5625 C 25.164062 -23.082031 25.53125 -21.429688 25.53125 -19.609375 C 25.53125 -16.453125 24.484375 -13.847656 22.390625 -11.796875 C 23.003906 -10.316406 23.953125 -8.117188 25.234375 -5.203125 Z M 9.109375 -15.921875 L 14.484375 -15.921875 C 15.296875 -15.921875 16.109375 -16.226562 16.921875 -16.84375 C 17.734375 -17.457031 18.140625 -18.378906 18.140625 -19.609375 C 18.140625 -20.847656 17.734375 -21.78125 16.921875 -22.40625 C 16.109375 -23.039062 15.269531 -23.359375 14.40625 -23.359375 L 9.109375 -23.359375 Z M 9.109375 -15.921875" transform="translate(136.131 269.496)"/></g></g><g><g><path d="M 16.125 -31.15625 C 20.269531 -31.15625 23.867188 -29.65625 26.921875 -26.65625 C 29.972656 -23.664062 31.5 -19.953125 31.5 -15.515625 C 31.5 -11.078125 30.039062 -7.296875 27.125 -4.171875 C 24.21875 -1.054688 20.632812 0.5 16.375 0.5 C 12.125 0.5 8.503906 -1.035156 5.515625 -4.109375 C 2.535156 -7.191406 1.046875 -10.863281 1.046875 -15.125 C 1.046875 -17.445312 1.460938 -19.625 2.296875 -21.65625 C 3.140625 -23.6875 4.257812 -25.382812 5.65625 -26.75 C 7.0625 -28.125 8.675781 -29.203125 10.5 -29.984375 C 12.320312 -30.765625 14.195312 -31.15625 16.125 -31.15625 Z M 8.484375 -15.328125 C 8.484375 -12.835938 9.285156 -10.816406 10.890625 -9.265625 C 12.503906 -7.710938 14.304688 -6.9375 16.296875 -6.9375 C 18.285156 -6.9375 20.078125 -7.691406 21.671875 -9.203125 C 23.265625 -10.710938 24.0625 -12.738281 24.0625 -15.28125 C 24.0625 -17.832031 23.253906 -19.878906 21.640625 -21.421875 C 20.035156 -22.960938 18.238281 -23.734375 16.25 -23.734375 C 14.257812 -23.734375 12.46875 -22.953125 10.875 -21.390625 C 9.28125 -19.835938 8.484375 -17.816406 8.484375 -15.328125 Z M 8.484375 -15.328125" transform="translate(162.633 269.496)"/></g></g></g><g fill="#FFF"><g><g><path d="M 38.515625 -30.625 C 40.390625 -29.945312 41.328125 -29.050781 41.328125 -27.9375 C 41.328125 -27.570312 41.160156 -26.882812 40.828125 -25.875 L 32.765625 -2.5625 C 32.703125 -2.363281 32.597656 -2.125 32.453125 -1.84375 C 32.316406 -1.5625 31.945312 -1.191406 31.34375 -0.734375 C 30.75 -0.273438 30.035156 -0.046875 29.203125 -0.046875 C 28.378906 -0.046875 27.664062 -0.273438 27.0625 -0.734375 C 26.46875 -1.191406 26.070312 -1.644531 25.875 -2.09375 L 20.953125 -16.59375 C 17.847656 -7.40625 16.265625 -2.726562 16.203125 -2.5625 C 16.148438 -2.394531 16.023438 -2.15625 15.828125 -1.84375 C 15.640625 -1.539062 15.414062 -1.265625 15.15625 -1.015625 C 14.519531 -0.367188 13.753906 -0.046875 12.859375 -0.046875 C 11.960938 -0.046875 11.222656 -0.253906 10.640625 -0.671875 C 10.066406 -1.085938 9.679688 -1.507812 9.484375 -1.9375 L 9.203125 -2.5625 L 1.09375 -25.875 C 0.78125 -26.800781 0.625 -27.488281 0.625 -27.9375 C 0.625 -29.050781 1.5625 -29.929688 3.4375 -30.578125 C 4.25 -30.859375 4.984375 -31 5.640625 -31 C 6.304688 -31 6.8125 -30.773438 7.15625 -30.328125 C 7.507812 -29.878906 7.828125 -29.191406 8.109375 -28.265625 L 12.71875 -14.234375 L 17.296875 -28.0625 C 17.691406 -29.226562 18.410156 -30.035156 19.453125 -30.484375 C 19.898438 -30.679688 20.476562 -30.78125 21.1875 -30.78125 C 21.90625 -30.78125 22.570312 -30.550781 23.1875 -30.09375 C 23.800781 -29.632812 24.191406 -29.179688 24.359375 -28.734375 L 29.1875 -14.15625 L 33.8125 -28.265625 C 34.03125 -28.910156 34.207031 -29.382812 34.34375 -29.6875 C 34.488281 -30 34.75 -30.300781 35.125 -30.59375 C 35.507812 -30.882812 35.976562 -31.03125 36.53125 -31.03125 C 37.09375 -31.03125 37.753906 -30.894531 38.515625 -30.625 Z M 38.515625 -30.625" transform="translate(195.183 269.496)"/></g></g><g><g><path d="M 21.5625 -29.5 C 21.832031 -29.988281 22.234375 -30.316406 22.765625 -30.484375 C 23.296875 -30.660156 23.957031 -30.75 24.75 -30.75 C 25.550781 -30.75 26.195312 -30.675781 26.6875 -30.53125 C 27.175781 -30.394531 27.539062 -30.226562 27.78125 -30.03125 C 28.019531 -29.832031 28.195312 -29.535156 28.3125 -29.140625 C 28.476562 -28.691406 28.5625 -27.976562 28.5625 -27 L 28.5625 -3.703125 C 28.5625 -3.023438 28.539062 -2.53125 28.5 -2.21875 C 28.457031 -1.914062 28.320312 -1.554688 28.09375 -1.140625 C 27.707031 -0.378906 26.617188 0 24.828125 0 C 23.734375 0 22.972656 -0.0820312 22.546875 -0.25 C 22.128906 -0.414062 21.78125 -0.679688 21.5 -1.046875 C 15.195312 -9.453125 11.054688 -14.941406 9.078125 -17.515625 L 9.078125 -3.703125 C 9.078125 -3.023438 9.054688 -2.53125 9.015625 -2.21875 C 8.972656 -1.914062 8.835938 -1.554688 8.609375 -1.140625 C 8.210938 -0.378906 7.117188 0 5.328125 0 C 3.597656 0 2.535156 -0.378906 2.140625 -1.140625 C 1.921875 -1.554688 1.789062 -1.929688 1.75 -2.265625 C 1.707031 -2.597656 1.6875 -3.085938 1.6875 -3.734375 L 1.6875 -27.171875 C 1.6875 -28.234375 1.816406 -29.007812 2.078125 -29.5 C 2.347656 -29.988281 2.75 -30.316406 3.28125 -30.484375 C 3.8125 -30.660156 4.492188 -30.75 5.328125 -30.75 C 6.171875 -30.75 6.835938 -30.671875 7.328125 -30.515625 C 7.816406 -30.359375 8.160156 -30.179688 8.359375 -29.984375 C 8.472656 -29.898438 8.796875 -29.535156 9.328125 -28.890625 C 15.234375 -20.859375 19.179688 -15.554688 21.171875 -12.984375 L 21.171875 -27.171875 C 21.171875 -28.234375 21.300781 -29.007812 21.5625 -29.5 Z M 21.5625 -29.5" transform="translate(237.141 269.496)"/></g></g></g><g fill="#FFF"><g><g><path d="M 1.5625 0 C 1.457031 0 1.367188 -0.0351562 1.296875 -0.109375 C 1.222656 -0.179688 1.1875 -0.28125 1.1875 -0.40625 L 1.1875 -10.796875 C 1.1875 -10.910156 1.222656 -11.003906 1.296875 -11.078125 C 1.367188 -11.160156 1.457031 -11.203125 1.5625 -11.203125 L 6.34375 -11.203125 C 7.21875 -11.203125 7.941406 -11.070312 8.515625 -10.8125 C 9.085938 -10.5625 9.503906 -10.203125 9.765625 -9.734375 C 10.035156 -9.265625 10.171875 -8.710938 10.171875 -8.078125 C 10.171875 -7.679688 10.097656 -7.332031 9.953125 -7.03125 C 9.816406 -6.738281 9.644531 -6.492188 9.4375 -6.296875 C 9.226562 -6.109375 9.023438 -5.96875 8.828125 -5.875 C 9.242188 -5.675781 9.613281 -5.351562 9.9375 -4.90625 C 10.257812 -4.46875 10.421875 -3.945312 10.421875 -3.34375 C 10.421875 -2.675781 10.265625 -2.085938 9.953125 -1.578125 C 9.648438 -1.078125 9.207031 -0.6875 8.625 -0.40625 C 8.039062 -0.132812 7.328125 0 6.484375 0 Z M 3.734375 -1.890625 L 6.171875 -1.890625 C 6.691406 -1.890625 7.085938 -2.035156 7.359375 -2.328125 C 7.628906 -2.617188 7.765625 -2.960938 7.765625 -3.359375 C 7.765625 -3.773438 7.625 -4.125 7.34375 -4.40625 C 7.070312 -4.6875 6.679688 -4.828125 6.171875 -4.828125 L 3.734375 -4.828125 Z M 3.734375 -6.671875 L 6.03125 -6.671875 C 6.53125 -6.671875 6.90625 -6.796875 7.15625 -7.046875 C 7.40625 -7.296875 7.53125 -7.617188 7.53125 -8.015625 C 7.53125 -8.410156 7.40625 -8.722656 7.15625 -8.953125 C 6.90625 -9.191406 6.53125 -9.3125 6.03125 -9.3125 L 3.734375 -9.3125 Z M 3.734375 -6.671875" transform="translate(138.55 293.996)"/></g></g></g><g fill="#FFF"><g><g><path d="M 5.765625 0.15625 C 4.828125 0.15625 4.003906 0 3.296875 -0.3125 C 2.585938 -0.625 2.039062 -1.109375 1.65625 -1.765625 C 1.28125 -2.421875 1.09375 -3.253906 1.09375 -4.265625 L 1.09375 -10.796875 C 1.09375 -10.910156 1.128906 -11.003906 1.203125 -11.078125 C 1.273438 -11.160156 1.363281 -11.203125 1.46875 -11.203125 L 3.234375 -11.203125 C 3.347656 -11.203125 3.441406 -11.160156 3.515625 -11.078125 C 3.585938 -11.003906 3.625 -10.910156 3.625 -10.796875 L 3.625 -4.28125 C 3.625 -3.507812 3.8125 -2.929688 4.1875 -2.546875 C 4.5625 -2.160156 5.085938 -1.96875 5.765625 -1.96875 C 6.421875 -1.96875 6.9375 -2.160156 7.3125 -2.546875 C 7.6875 -2.929688 7.875 -3.507812 7.875 -4.28125 L 7.875 -10.796875 C 7.875 -10.910156 7.910156 -11.003906 7.984375 -11.078125 C 8.066406 -11.160156 8.160156 -11.203125 8.265625 -11.203125 L 10.03125 -11.203125 C 10.132812 -11.203125 10.222656 -11.160156 10.296875 -11.078125 C 10.378906 -11.003906 10.421875 -10.910156 10.421875 -10.796875 L 10.421875 -4.265625 C 10.421875 -3.253906 10.226562 -2.421875 9.84375 -1.765625 C 9.46875 -1.109375 8.929688 -0.625 8.234375 -0.3125 C 7.535156 0 6.710938 0.15625 5.765625 0.15625 Z M 5.765625 0.15625" transform="translate(156.067 293.996)"/></g></g></g><g fill="#FFF"><g><g><path d="M 1.5625 0 C 1.457031 0 1.367188 -0.0351562 1.296875 -0.109375 C 1.222656 -0.179688 1.1875 -0.28125 1.1875 -0.40625 L 1.1875 -10.796875 C 1.1875 -10.910156 1.222656 -11.003906 1.296875 -11.078125 C 1.367188 -11.160156 1.457031 -11.203125 1.5625 -11.203125 L 5.828125 -11.203125 C 7.160156 -11.203125 8.207031 -10.894531 8.96875 -10.28125 C 9.738281 -9.664062 10.125 -8.78125 10.125 -7.625 C 10.125 -6.851562 9.9375 -6.203125 9.5625 -5.671875 C 9.195312 -5.148438 8.695312 -4.765625 8.0625 -4.515625 L 10.34375 -0.515625 C 10.375 -0.453125 10.390625 -0.394531 10.390625 -0.34375 C 10.390625 -0.25 10.351562 -0.164062 10.28125 -0.09375 C 10.207031 -0.03125 10.128906 0 10.046875 0 L 8.25 0 C 8.0625 0 7.921875 -0.046875 7.828125 -0.140625 C 7.734375 -0.242188 7.660156 -0.34375 7.609375 -0.4375 L 5.65625 -4.09375 L 3.734375 -4.09375 L 3.734375 -0.40625 C 3.734375 -0.28125 3.691406 -0.179688 3.609375 -0.109375 C 3.535156 -0.0351562 3.441406 0 3.328125 0 Z M 3.734375 -6.125 L 5.796875 -6.125 C 6.367188 -6.125 6.796875 -6.253906 7.078125 -6.515625 C 7.359375 -6.785156 7.5 -7.160156 7.5 -7.640625 C 7.5 -8.128906 7.359375 -8.507812 7.078125 -8.78125 C 6.804688 -9.0625 6.378906 -9.203125 5.796875 -9.203125 L 3.734375 -9.203125 Z M 3.734375 -6.125" transform="translate(173.968 293.996)"/></g></g></g><g fill="#FFF"><g><g><path d="M 5.6875 0.15625 C 4.675781 0.15625 3.816406 -0.0078125 3.109375 -0.34375 C 2.398438 -0.675781 1.847656 -1.164062 1.453125 -1.8125 C 1.066406 -2.457031 0.859375 -3.238281 0.828125 -4.15625 C 0.816406 -4.613281 0.8125 -5.101562 0.8125 -5.625 C 0.8125 -6.15625 0.816406 -6.65625 0.828125 -7.125 C 0.859375 -8.019531 1.066406 -8.78125 1.453125 -9.40625 C 1.847656 -10.039062 2.40625 -10.523438 3.125 -10.859375 C 3.84375 -11.191406 4.695312 -11.359375 5.6875 -11.359375 C 6.46875 -11.359375 7.15625 -11.253906 7.75 -11.046875 C 8.351562 -10.847656 8.859375 -10.585938 9.265625 -10.265625 C 9.679688 -9.941406 9.992188 -9.585938 10.203125 -9.203125 C 10.410156 -8.816406 10.519531 -8.441406 10.53125 -8.078125 C 10.53125 -7.984375 10.5 -7.90625 10.4375 -7.84375 C 10.375 -7.78125 10.285156 -7.75 10.171875 -7.75 L 8.1875 -7.75 C 8.082031 -7.75 8 -7.769531 7.9375 -7.8125 C 7.882812 -7.851562 7.835938 -7.914062 7.796875 -8 C 7.722656 -8.175781 7.601562 -8.363281 7.4375 -8.5625 C 7.269531 -8.769531 7.046875 -8.941406 6.765625 -9.078125 C 6.492188 -9.210938 6.132812 -9.28125 5.6875 -9.28125 C 5.007812 -9.28125 4.472656 -9.101562 4.078125 -8.75 C 3.691406 -8.394531 3.484375 -7.828125 3.453125 -7.046875 C 3.421875 -6.117188 3.421875 -5.179688 3.453125 -4.234375 C 3.484375 -3.421875 3.703125 -2.832031 4.109375 -2.46875 C 4.515625 -2.101562 5.050781 -1.921875 5.71875 -1.921875 C 6.15625 -1.921875 6.546875 -2 6.890625 -2.15625 C 7.234375 -2.3125 7.503906 -2.550781 7.703125 -2.875 C 7.910156 -3.195312 8.015625 -3.613281 8.015625 -4.125 L 8.015625 -4.53125 L 6.265625 -4.53125 C 6.160156 -4.53125 6.070312 -4.566406 6 -4.640625 C 5.925781 -4.722656 5.890625 -4.816406 5.890625 -4.921875 L 5.890625 -5.953125 C 5.890625 -6.066406 5.925781 -6.160156 6 -6.234375 C 6.070312 -6.316406 6.160156 -6.359375 6.265625 -6.359375 L 10.203125 -6.359375 C 10.328125 -6.359375 10.425781 -6.316406 10.5 -6.234375 C 10.570312 -6.160156 10.609375 -6.066406 10.609375 -5.953125 L 10.609375 -4.203125 C 10.609375 -3.285156 10.40625 -2.5 10 -1.84375 C 9.59375 -1.195312 9.019531 -0.703125 8.28125 -0.359375 C 7.539062 -0.015625 6.675781 0.15625 5.6875 0.15625 Z M 5.6875 0.15625" transform="translate(191.278 293.996)"/></g></g></g><g fill="#FFF"><g><g><path d="M 1.5625 0 C 1.457031 0 1.367188 -0.0351562 1.296875 -0.109375 C 1.222656 -0.179688 1.1875 -0.28125 1.1875 -0.40625 L 1.1875 -10.796875 C 1.1875 -10.910156 1.222656 -11.003906 1.296875 -11.078125 C 1.367188 -11.160156 1.457031 -11.203125 1.5625 -11.203125 L 8.828125 -11.203125 C 8.953125 -11.203125 9.050781 -11.160156 9.125 -11.078125 C 9.195312 -11.003906 9.234375 -10.910156 9.234375 -10.796875 L 9.234375 -9.515625 C 9.234375 -9.398438 9.195312 -9.304688 9.125 -9.234375 C 9.050781 -9.160156 8.953125 -9.125 8.828125 -9.125 L 3.640625 -9.125 L 3.640625 -6.625 L 8.484375 -6.625 C 8.597656 -6.625 8.691406 -6.585938 8.765625 -6.515625 C 8.835938 -6.441406 8.875 -6.34375 8.875 -6.21875 L 8.875 -5.046875 C 8.875 -4.929688 8.835938 -4.832031 8.765625 -4.75 C 8.691406 -4.675781 8.597656 -4.640625 8.484375 -4.640625 L 3.640625 -4.640625 L 3.640625 -2.078125 L 8.953125 -2.078125 C 9.078125 -2.078125 9.175781 -2.039062 9.25 -1.96875 C 9.320312 -1.894531 9.359375 -1.800781 9.359375 -1.6875 L 9.359375 -0.40625 C 9.359375 -0.28125 9.320312 -0.179688 9.25 -0.109375 C 9.175781 -0.0351562 9.078125 0 8.953125 0 Z M 1.5625 0" transform="translate(209.035 293.996)"/></g></g></g><g fill="#FFF"><g><g><path d="M 1.5625 0 C 1.457031 0 1.367188 -0.0351562 1.296875 -0.109375 C 1.222656 -0.179688 1.1875 -0.28125 1.1875 -0.40625 L 1.1875 -10.796875 C 1.1875 -10.910156 1.222656 -11.003906 1.296875 -11.078125 C 1.367188 -11.160156 1.457031 -11.203125 1.5625 -11.203125 L 5.828125 -11.203125 C 7.160156 -11.203125 8.207031 -10.894531 8.96875 -10.28125 C 9.738281 -9.664062 10.125 -8.78125 10.125 -7.625 C 10.125 -6.851562 9.9375 -6.203125 9.5625 -5.671875 C 9.195312 -5.148438 8.695312 -4.765625 8.0625 -4.515625 L 10.34375 -0.515625 C 10.375 -0.453125 10.390625 -0.394531 10.390625 -0.34375 C 10.390625 -0.25 10.351562 -0.164062 10.28125 -0.09375 C 10.207031 -0.03125 10.128906 0 10.046875 0 L 8.25 0 C 8.0625 0 7.921875 -0.046875 7.828125 -0.140625 C 7.734375 -0.242188 7.660156 -0.34375 7.609375 -0.4375 L 5.65625 -4.09375 L 3.734375 -4.09375 L 3.734375 -0.40625 C 3.734375 -0.28125 3.691406 -0.179688 3.609375 -0.109375 C 3.535156 -0.0351562 3.441406 0 3.328125 0 Z M 3.734375 -6.125 L 5.796875 -6.125 C 6.367188 -6.125 6.796875 -6.253906 7.078125 -6.515625 C 7.359375 -6.785156 7.5 -7.160156 7.5 -7.640625 C 7.5 -8.128906 7.359375 -8.507812 7.078125 -8.78125 C 6.804688 -9.0625 6.378906 -9.203125 5.796875 -9.203125 L 3.734375 -9.203125 Z M 3.734375 -6.125" transform="translate(225.528 293.996)"/></g></g></g></svg>